<?xml version="1.0" encoding="UTF-8" standalone="no"?><!DOCTYPE svg PUBLIC "-//W3C//DTD SVG 1.1//EN" "http://www.w3.org/Graphics/SVG/1.1/DTD/svg11.dtd"><svg width="100%" height="100%" viewBox="0 0 242 278" version="1.1" xmlns="http://www.w3.org/2000/svg" xmlns:xlink="http://www.w3.org/1999/xlink" xml:space="preserve" xmlns:serif="http://www.serif.com/" style="fill-rule:evenodd;clip-rule:evenodd;stroke-linecap:round;stroke-linejoin:round;"><path d="M241.817,69.065l-120.534,69.365l0,139.18l120.534,-68.352l-0,-140.193Z" style="fill:#242424;"/><path d="M121.283,277.61l-120.533,-69.365l0,-139.18l120.533,68.352l0,140.193Z" style="fill:#242424;"/><path d="M120.533,0l-120.533,69.815l120.533,69.365l120.534,-69.365l-120.534,-69.815Z" style="fill:#292a2d;"/><g id="globe.svg" opacity="0.69"><path d="M181.55,129.343c18.211,-10.514 32.996,0.663 32.996,24.944c0,24.282 -14.785,52.531 -32.996,63.045c-18.211,10.514 -32.996,-0.663 -32.996,-24.944c0,-24.281 14.785,-52.531 32.996,-63.045Z" style="fill:none;stroke:#fff;stroke-width:2.92px;"/><path d="M148.554,192.388l65.992,-38.101" style="fill:none;fill-rule:nonzero;stroke:#fff;stroke-width:2.92px;"/><path d="M181.55,129.343c8.251,7.28 12.944,20.213 13.199,36.375c-0.255,16.455 -4.948,34.807 -13.199,51.614c-8.251,-7.28 -12.943,-20.213 -13.198,-36.374c0.255,-16.456 4.947,-34.807 13.198,-51.615Z" style="fill:none;fill-rule:nonzero;stroke:#fff;stroke-width:2.92px;"/></g><g id="tool.svg" opacity="0.69"><path d="M70.977,156.659c-1.397,0.714 -1.397,3.182 0,5.509l5.903,9.704c1.425,2.313 3.739,3.649 5.164,2.981l13.908,-6.805c1.298,3.808 1.969,7.514 1.969,10.87c-0,12.953 -9.992,17.842 -22.135,10.831c-3.147,-1.817 -6.258,-4.329 -9.125,-7.368l-25.491,12.473c-1.468,0.718 -3.459,0.448 -5.534,-0.75c-4.293,-2.478 -7.826,-8.286 -7.826,-12.865c0,-2.213 0.825,-3.862 2.292,-4.579l25.492,-12.474c-1.298,-3.807 -1.969,-7.513 -1.969,-10.87c0,-12.952 9.992,-17.841 22.135,-10.831c3.147,1.817 6.258,4.329 9.125,7.368l-13.908,6.806Z" style="fill:none;fill-rule:nonzero;stroke:#fff;stroke-width:5.02px;"/></g></svg>